<svg xmlns="http://www.w3.org/2000/svg" viewBox="0 0 720 540"
     preserveAspectRatio="xMidYMid slice" role="presentation">
  <!-- Arte autoral gerada por arte.py, na linguagem do guia de identidade.
       Substituível por foto real: ver .foto-tratada no style.css -->
  <defs>
    <linearGradient id="fundo" x1="0" y1="0" x2="1" y2="1">
      <stop offset="0%" stop-color="#16290A"/>
      <stop offset="55%" stop-color="#112005"/>
      <stop offset="100%" stop-color="#0B1703"/>
    </linearGradient>
    <radialGradient id="brilho">
      <stop offset="0%" stop-color="#46B148" stop-opacity=".55"/>
      <stop offset="100%" stop-color="#46B148" stop-opacity="0"/>
    </radialGradient>
    <radialGradient id="brilho2">
      <stop offset="0%" stop-color="#AFD745" stop-opacity=".30"/>
      <stop offset="100%" stop-color="#AFD745" stop-opacity="0"/>
    </radialGradient>
    <pattern id="malha" width="46" height="46" patternUnits="userSpaceOnUse"
             patternTransform="rotate(45)">
      <path d="M0 0 H46 M0 0 V46" stroke="#AFD745" stroke-opacity=".16" stroke-width="1" fill="none"/>
    </pattern>
    <clipPath id="quadro">
      <rect x="0" y="0" width="720" height="540" rx="18"/>
    </clipPath>
  </defs>
  <g clip-path="url(#quadro)">
    <rect width="720" height="540" fill="url(#fundo)"/>
    <rect width="720" height="540" fill="url(#malha)"/>
    <circle cx="532" cy="118" r="331" fill="url(#brilho)"/>
    <circle cx="129" cy="475" r="216" fill="url(#brilho2)"/>
    <g transform="translate(149.4 59.4) scale(17.550)" fill="none" stroke="#AFD745" stroke-opacity=".13" stroke-width="1.7" stroke-linecap="round" stroke-linejoin="round"><path d="M12 2.5l7.6 3v5.9c0 4.9-3.2 8.6-7.6 10.1-4.4-1.5-7.6-5.2-7.6-10.1V5.5z"/><path d="M9 12l2.1 2.1L15.4 9.9"/></g>
    <path d="M360.0 108.0 L522.0 270.0 L360.0 432.0 L198.0 270.0 Z" fill="#AFD745" fill-opacity="0.050" stroke="#AFD745" stroke-opacity="0.14" stroke-width="1.6"/>
    <path d="M360.0 91.8 L510.7 242.5 L360.0 393.1 L209.3 242.5 Z" fill="#AFD745" fill-opacity="0.100" stroke="#AFD745" stroke-opacity="0.27" stroke-width="1.6"/>
    <path d="M360.0 75.6 L499.3 214.9 L360.0 354.2 L220.7 214.9 Z" fill="#AFD745" fill-opacity="0.150" stroke="#AFD745" stroke-opacity="0.40" stroke-width="1.6"/>
    <path d="M360.0 59.4 L488.0 187.4 L360.0 315.4 L232.0 187.4 Z" fill="#AFD745" fill-opacity="0.200" stroke="#AFD745" stroke-opacity="0.53" stroke-width="1.6"/>
    <path d="M619.2 171.6 L631.2 183.6 L619.2 195.6 L607.2 183.6 Z" fill="#AFD745" fill-opacity="0.24"/>
    <path d="M158.4 425.0 L165.4 432.0 L158.4 439.0 L151.4 432.0 Z" fill="#AFD745" fill-opacity="0.34"/>
    <path d="M669.6 361.2 L675.6 367.2 L669.6 373.2 L663.6 367.2 Z" fill="#AFD745" fill-opacity="0.24"/>
    <path d="M43.2 291.0 L49.2 297.0 L43.2 303.0 L37.2 297.0 Z" fill="#AFD745" fill-opacity="0.34"/>
  </g>
  <rect x=".75" y=".75" width="718.5" height="538.5" rx="17.5"
        fill="none" stroke="#AFD745" stroke-opacity=".22" stroke-width="1.5"/>
</svg>
